<svg width="999" height="399" viewBox="0 0 999 399" fill="none"
    xmlns="http://www.w3.org/2000/svg">
    <rect width="999" height="399" rx="10" stroke="#f5f5f5" stroke-width="1" fill="white"/>
    <path d="M230.276 198V171.818H235.722V181.662H235.888C236.126 181.134 236.472 180.597 236.923 180.051C237.384 179.497 237.98 179.037 238.713 178.67C239.455 178.295 240.375 178.108 241.474 178.108C242.906 178.108 244.227 178.483 245.438 179.233C246.648 179.974 247.615 181.095 248.339 182.595C249.064 184.087 249.426 185.957 249.426 188.207C249.426 190.398 249.072 192.247 248.365 193.756C247.666 195.256 246.712 196.393 245.501 197.169C244.3 197.936 242.953 198.32 241.462 198.32C240.405 198.32 239.506 198.145 238.764 197.795C238.031 197.446 237.43 197.007 236.962 196.479C236.493 195.942 236.135 195.401 235.888 194.855H235.645V198H230.276ZM235.607 188.182C235.607 189.349 235.768 190.368 236.092 191.237C236.416 192.107 236.885 192.784 237.499 193.27C238.112 193.747 238.858 193.986 239.736 193.986C240.622 193.986 241.372 193.743 241.986 193.257C242.599 192.763 243.064 192.081 243.379 191.212C243.703 190.334 243.865 189.324 243.865 188.182C243.865 187.048 243.707 186.051 243.392 185.19C243.077 184.33 242.612 183.656 241.999 183.17C241.385 182.685 240.631 182.442 239.736 182.442C238.849 182.442 238.099 182.676 237.486 183.145C236.881 183.614 236.416 184.278 236.092 185.139C235.768 186 235.607 187.014 235.607 188.182ZM265.652 189.639V178.364H271.098V198H265.87V194.433H265.665C265.222 195.584 264.485 196.509 263.453 197.207C262.431 197.906 261.182 198.256 259.708 198.256C258.395 198.256 257.24 197.957 256.243 197.361C255.246 196.764 254.466 195.916 253.904 194.817C253.35 193.717 253.069 192.401 253.06 190.866V178.364H258.506V189.895C258.515 191.054 258.826 191.97 259.439 192.643C260.053 193.317 260.875 193.653 261.907 193.653C262.563 193.653 263.176 193.504 263.748 193.206C264.319 192.899 264.779 192.447 265.128 191.851C265.486 191.254 265.661 190.517 265.652 189.639ZM275.455 198V178.364H280.734V181.79H280.939C281.297 180.571 281.898 179.651 282.741 179.028C283.585 178.398 284.557 178.082 285.656 178.082C285.929 178.082 286.223 178.099 286.538 178.134C286.854 178.168 287.131 178.214 287.369 178.274V183.107C287.114 183.03 286.76 182.962 286.308 182.902C285.857 182.842 285.443 182.812 285.068 182.812C284.267 182.812 283.551 182.987 282.92 183.337C282.298 183.678 281.804 184.155 281.438 184.768C281.08 185.382 280.901 186.089 280.901 186.891V198H275.455ZM290.185 198V178.364H295.375V181.828H295.605C296.015 180.678 296.696 179.77 297.651 179.105C298.605 178.44 299.748 178.108 301.077 178.108C302.424 178.108 303.57 178.445 304.516 179.118C305.462 179.783 306.093 180.686 306.408 181.828H306.613C307.013 180.703 307.738 179.804 308.786 179.131C309.843 178.449 311.091 178.108 312.532 178.108C314.364 178.108 315.851 178.692 316.993 179.859C318.144 181.018 318.719 182.663 318.719 184.794V198H313.286V185.868C313.286 184.777 312.996 183.959 312.417 183.413C311.837 182.868 311.113 182.595 310.243 182.595C309.255 182.595 308.483 182.911 307.929 183.541C307.375 184.163 307.098 184.986 307.098 186.009V198H301.819V185.753C301.819 184.79 301.542 184.023 300.988 183.452C300.442 182.881 299.722 182.595 298.827 182.595C298.222 182.595 297.676 182.749 297.191 183.055C296.713 183.354 296.334 183.776 296.053 184.321C295.772 184.858 295.631 185.489 295.631 186.213V198H290.185Z" fill="black"/>
    <path d="M230.634 222.636C230.634 220.591 230.892 218.659 231.409 216.841C231.926 215.023 232.668 213.318 233.634 211.727H235.014C234.599 212.398 234.219 213.156 233.872 214.003C233.531 214.849 233.236 215.753 232.986 216.713C232.736 217.673 232.543 218.656 232.406 219.662C232.27 220.662 232.202 221.653 232.202 222.636C232.202 223.949 232.321 225.273 232.56 226.608C232.798 227.943 233.128 229.21 233.548 230.409C233.974 231.608 234.463 232.653 235.014 233.545H233.634C232.668 231.949 231.926 230.241 231.409 228.423C230.892 226.605 230.634 224.676 230.634 222.636ZM241.979 230.298C241.19 230.298 240.468 230.145 239.815 229.838C239.161 229.526 238.641 229.077 238.255 228.491C237.869 227.901 237.675 227.185 237.675 226.344C237.675 225.696 237.798 225.151 238.042 224.707C238.286 224.264 238.633 223.901 239.082 223.616C239.531 223.332 240.062 223.108 240.675 222.943C241.289 222.778 241.965 222.651 242.704 222.56C243.437 222.469 244.056 222.389 244.562 222.321C245.073 222.253 245.462 222.145 245.729 221.997C245.996 221.849 246.13 221.611 246.13 221.281V220.974C246.13 220.082 245.863 219.381 245.329 218.869C244.8 218.352 244.039 218.094 243.045 218.094C242.102 218.094 241.332 218.301 240.735 218.716C240.144 219.131 239.729 219.619 239.491 220.182L238.05 219.662C238.346 218.946 238.755 218.375 239.278 217.949C239.8 217.517 240.386 217.207 241.033 217.02C241.681 216.827 242.337 216.73 243.002 216.73C243.502 216.73 244.022 216.795 244.562 216.926C245.107 217.057 245.613 217.284 246.079 217.608C246.545 217.926 246.923 218.372 247.212 218.946C247.502 219.514 247.647 220.236 247.647 221.111V230H246.13V227.929H246.036C245.854 228.315 245.585 228.69 245.227 229.054C244.869 229.418 244.42 229.716 243.88 229.949C243.34 230.182 242.707 230.298 241.979 230.298ZM242.184 228.909C242.991 228.909 243.69 228.73 244.281 228.372C244.871 228.014 245.326 227.54 245.644 226.949C245.968 226.352 246.13 225.696 246.13 224.98V223.088C246.016 223.196 245.826 223.293 245.559 223.378C245.298 223.463 244.994 223.54 244.647 223.608C244.306 223.67 243.965 223.724 243.624 223.77C243.283 223.815 242.977 223.855 242.704 223.889C241.965 223.98 241.335 224.122 240.812 224.315C240.289 224.509 239.888 224.776 239.61 225.116C239.332 225.452 239.192 225.884 239.192 226.412C239.192 227.207 239.477 227.824 240.045 228.261C240.613 228.693 241.326 228.909 242.184 228.909ZM253.2 221.818V230H251.683V216.909H253.157V218.963H253.293C253.6 218.293 254.077 217.756 254.725 217.352C255.379 216.943 256.185 216.739 257.146 216.739C258.026 216.739 258.799 216.923 259.464 217.293C260.134 217.656 260.654 218.193 261.023 218.903C261.398 219.614 261.586 220.486 261.586 221.52V230H260.069V221.614C260.069 220.54 259.768 219.69 259.165 219.065C258.569 218.44 257.768 218.128 256.762 218.128C256.075 218.128 255.464 218.276 254.93 218.571C254.396 218.866 253.972 219.293 253.66 219.849C253.353 220.401 253.2 221.057 253.2 221.818ZM277.419 230.273C276.288 230.273 275.288 229.986 274.419 229.412C273.555 228.838 272.879 228.045 272.391 227.034C271.902 226.017 271.658 224.844 271.658 223.514C271.658 222.173 271.902 220.994 272.391 219.977C272.879 218.955 273.555 218.159 274.419 217.591C275.288 217.017 276.288 216.73 277.419 216.73C278.55 216.73 279.547 217.017 280.411 217.591C281.274 218.165 281.95 218.96 282.439 219.977C282.933 220.994 283.18 222.173 283.18 223.514C283.18 224.844 282.936 226.017 282.447 227.034C281.959 228.045 281.28 228.838 280.411 229.412C279.547 229.986 278.55 230.273 277.419 230.273ZM277.419 228.884C278.328 228.884 279.098 228.639 279.729 228.151C280.359 227.662 280.837 227.011 281.161 226.199C281.49 225.386 281.655 224.491 281.655 223.514C281.655 222.537 281.49 221.639 281.161 220.821C280.837 220.003 280.359 219.347 279.729 218.852C279.098 218.358 278.328 218.111 277.419 218.111C276.516 218.111 275.746 218.358 275.109 218.852C274.479 219.347 273.999 220.003 273.669 220.821C273.345 221.639 273.183 222.537 273.183 223.514C273.183 224.491 273.345 225.386 273.669 226.199C273.999 227.011 274.479 227.662 275.109 228.151C275.74 228.639 276.51 228.884 277.419 228.884ZM286.826 230V212.545H288.352V219.406H288.488C288.658 219.014 288.903 218.611 289.221 218.196C289.545 217.781 289.968 217.435 290.491 217.156C291.019 216.872 291.684 216.73 292.485 216.73C293.559 216.73 294.502 217.014 295.315 217.582C296.127 218.145 296.761 218.935 297.215 219.952C297.67 220.963 297.897 222.142 297.897 223.489C297.897 224.841 297.67 226.026 297.215 227.043C296.766 228.06 296.136 228.852 295.323 229.42C294.516 229.989 293.579 230.273 292.511 230.273C291.715 230.273 291.05 230.131 290.516 229.847C289.988 229.562 289.562 229.213 289.238 228.798C288.914 228.378 288.664 227.969 288.488 227.571H288.3V230H286.826ZM288.326 223.463C288.326 224.52 288.482 225.457 288.795 226.276C289.113 227.088 289.567 227.727 290.158 228.193C290.755 228.653 291.477 228.884 292.323 228.884C293.192 228.884 293.928 228.645 294.531 228.168C295.133 227.685 295.59 227.034 295.903 226.216C296.215 225.398 296.371 224.48 296.371 223.463C296.371 222.457 296.215 221.551 295.903 220.744C295.596 219.937 295.141 219.298 294.539 218.827C293.937 218.349 293.198 218.111 292.323 218.111C291.471 218.111 290.746 218.341 290.15 218.801C289.559 219.256 289.107 219.886 288.795 220.693C288.482 221.494 288.326 222.418 288.326 223.463ZM301.246 216.909H302.772V231.27C302.772 232.014 302.633 232.656 302.354 233.196C302.082 233.741 301.684 234.162 301.161 234.457C300.638 234.759 300.008 234.909 299.269 234.909C299.212 234.909 299.156 234.909 299.099 234.909C299.042 234.909 298.979 234.906 298.911 234.901L298.928 233.477C298.985 233.477 299.039 233.477 299.09 233.477C299.141 233.477 299.195 233.477 299.252 233.477C299.877 233.477 300.366 233.284 300.718 232.898C301.07 232.511 301.246 231.969 301.246 231.27V216.909ZM301.996 214.659C301.69 214.659 301.423 214.554 301.195 214.344C300.974 214.128 300.863 213.869 300.863 213.568C300.863 213.267 300.974 213.011 301.195 212.801C301.423 212.585 301.69 212.477 301.996 212.477C302.309 212.477 302.576 212.585 302.798 212.801C303.025 213.011 303.138 213.267 303.138 213.568C303.138 213.869 303.025 214.128 302.798 214.344C302.576 214.554 302.309 214.659 301.996 214.659ZM312.077 230.273C310.855 230.273 309.798 229.989 308.906 229.42C308.014 228.847 307.324 228.054 306.835 227.043C306.352 226.026 306.111 224.855 306.111 223.531C306.111 222.213 306.352 221.043 306.835 220.02C307.324 218.991 307.997 218.187 308.855 217.608C309.719 217.023 310.716 216.73 311.847 216.73C312.557 216.73 313.241 216.861 313.901 217.122C314.56 217.378 315.151 217.773 315.673 218.307C316.202 218.835 316.619 219.503 316.926 220.31C317.233 221.111 317.386 222.06 317.386 223.156V223.906H307.159V222.568H315.835C315.835 221.727 315.665 220.972 315.324 220.301C314.989 219.625 314.52 219.091 313.918 218.699C313.321 218.307 312.631 218.111 311.847 218.111C311.017 218.111 310.287 218.332 309.656 218.776C309.026 219.219 308.531 219.804 308.173 220.531C307.821 221.259 307.642 222.054 307.636 222.918V223.719C307.636 224.759 307.815 225.668 308.173 226.446C308.537 227.219 309.051 227.818 309.716 228.244C310.381 228.67 311.168 228.884 312.077 228.884C312.696 228.884 313.239 228.787 313.705 228.594C314.176 228.401 314.571 228.142 314.889 227.818C315.213 227.489 315.457 227.128 315.622 226.736L317.062 227.205C316.864 227.756 316.537 228.264 316.082 228.73C315.634 229.196 315.071 229.571 314.395 229.855C313.724 230.134 312.952 230.273 312.077 230.273ZM325.843 230.273C324.673 230.273 323.653 229.98 322.783 229.395C321.92 228.81 321.249 228.009 320.772 226.991C320.295 225.974 320.056 224.815 320.056 223.514C320.056 222.202 320.298 221.034 320.781 220.011C321.269 218.989 321.945 218.187 322.809 217.608C323.673 217.023 324.675 216.73 325.817 216.73C326.692 216.73 327.485 216.901 328.195 217.241C328.906 217.577 329.491 218.051 329.951 218.665C330.417 219.273 330.71 219.983 330.829 220.795H329.295C329.136 220.057 328.752 219.426 328.144 218.903C327.542 218.375 326.775 218.111 325.843 218.111C325.008 218.111 324.269 218.338 323.627 218.793C322.985 219.241 322.482 219.869 322.119 220.676C321.761 221.477 321.582 222.406 321.582 223.463C321.582 224.526 321.758 225.466 322.11 226.284C322.462 227.097 322.957 227.733 323.593 228.193C324.235 228.653 324.985 228.884 325.843 228.884C326.423 228.884 326.951 228.776 327.428 228.56C327.911 228.338 328.315 228.026 328.638 227.622C328.968 227.219 329.19 226.739 329.303 226.182H330.837C330.724 226.972 330.442 227.676 329.994 228.295C329.55 228.909 328.974 229.392 328.263 229.744C327.559 230.097 326.752 230.273 325.843 230.273ZM339.245 216.909V218.23H332.998V216.909H339.245ZM334.95 213.773H336.475V226.582C336.475 227.128 336.569 227.557 336.756 227.869C336.944 228.176 337.188 228.395 337.489 228.526C337.79 228.651 338.112 228.713 338.452 228.713C338.651 228.713 338.822 228.702 338.964 228.679C339.106 228.651 339.231 228.622 339.339 228.594L339.663 229.966C339.515 230.023 339.333 230.074 339.117 230.119C338.901 230.17 338.634 230.196 338.316 230.196C337.759 230.196 337.222 230.074 336.705 229.83C336.194 229.585 335.773 229.222 335.444 228.739C335.114 228.256 334.95 227.656 334.95 226.94V213.773ZM349.44 230V216.909H350.915V218.92H351.026C351.287 218.261 351.741 217.73 352.389 217.327C353.043 216.918 353.781 216.713 354.605 216.713C354.73 216.713 354.869 216.716 355.023 216.722C355.176 216.727 355.304 216.733 355.406 216.739V218.281C355.338 218.27 355.219 218.253 355.048 218.23C354.878 218.207 354.693 218.196 354.494 218.196C353.813 218.196 353.205 218.341 352.67 218.631C352.142 218.915 351.724 219.31 351.418 219.815C351.111 220.321 350.957 220.898 350.957 221.545V230H349.44ZM362.889 230.273C361.668 230.273 360.611 229.989 359.719 229.42C358.827 228.847 358.136 228.054 357.648 227.043C357.165 226.026 356.923 224.855 356.923 223.531C356.923 222.213 357.165 221.043 357.648 220.02C358.136 218.991 358.81 218.187 359.668 217.608C360.531 217.023 361.528 216.73 362.659 216.73C363.369 216.73 364.054 216.861 364.713 217.122C365.372 217.378 365.963 217.773 366.486 218.307C367.014 218.835 367.432 219.503 367.739 220.31C368.045 221.111 368.199 222.06 368.199 223.156V223.906H357.972V222.568H366.648C366.648 221.727 366.477 220.972 366.136 220.301C365.801 219.625 365.332 219.091 364.73 218.699C364.134 218.307 363.443 218.111 362.659 218.111C361.83 218.111 361.099 218.332 360.469 218.776C359.838 219.219 359.344 219.804 358.986 220.531C358.634 221.259 358.455 222.054 358.449 222.918V223.719C358.449 224.759 358.628 225.668 358.986 226.446C359.349 227.219 359.864 227.818 360.528 228.244C361.193 228.67 361.98 228.884 362.889 228.884C363.509 228.884 364.051 228.787 364.517 228.594C364.989 228.401 365.384 228.142 365.702 227.818C366.026 227.489 366.27 227.128 366.435 226.736L367.875 227.205C367.676 227.756 367.349 228.264 366.895 228.73C366.446 229.196 365.884 229.571 365.207 229.855C364.537 230.134 363.764 230.273 362.889 230.273ZM373.059 212.545V230H371.542V212.545H373.059ZM380.729 230.298C379.94 230.298 379.218 230.145 378.565 229.838C377.911 229.526 377.391 229.077 377.005 228.491C376.619 227.901 376.425 227.185 376.425 226.344C376.425 225.696 376.548 225.151 376.792 224.707C377.036 224.264 377.383 223.901 377.832 223.616C378.281 223.332 378.812 223.108 379.425 222.943C380.039 222.778 380.715 222.651 381.454 222.56C382.187 222.469 382.806 222.389 383.312 222.321C383.823 222.253 384.212 222.145 384.479 221.997C384.746 221.849 384.88 221.611 384.88 221.281V220.974C384.88 220.082 384.613 219.381 384.079 218.869C383.55 218.352 382.789 218.094 381.795 218.094C380.852 218.094 380.082 218.301 379.485 218.716C378.894 219.131 378.479 219.619 378.241 220.182L376.8 219.662C377.096 218.946 377.505 218.375 378.028 217.949C378.55 217.517 379.136 217.207 379.783 217.02C380.431 216.827 381.087 216.73 381.752 216.73C382.252 216.73 382.772 216.795 383.312 216.926C383.857 217.057 384.363 217.284 384.829 217.608C385.295 217.926 385.673 218.372 385.962 218.946C386.252 219.514 386.397 220.236 386.397 221.111V230H384.88V227.929H384.786C384.604 228.315 384.335 228.69 383.977 229.054C383.619 229.418 383.17 229.716 382.63 229.949C382.09 230.182 381.457 230.298 380.729 230.298ZM380.934 228.909C381.741 228.909 382.44 228.73 383.031 228.372C383.621 228.014 384.076 227.54 384.394 226.949C384.718 226.352 384.88 225.696 384.88 224.98V223.088C384.766 223.196 384.576 223.293 384.309 223.378C384.048 223.463 383.744 223.54 383.397 223.608C383.056 223.67 382.715 223.724 382.374 223.77C382.033 223.815 381.727 223.855 381.454 223.889C380.715 223.98 380.085 224.122 379.562 224.315C379.039 224.509 378.638 224.776 378.36 225.116C378.082 225.452 377.942 225.884 377.942 226.412C377.942 227.207 378.227 227.824 378.795 228.261C379.363 228.693 380.076 228.909 380.934 228.909ZM395.589 216.909V218.23H389.342V216.909H395.589ZM391.293 213.773H392.819V226.582C392.819 227.128 392.913 227.557 393.1 227.869C393.288 228.176 393.532 228.395 393.833 228.526C394.134 228.651 394.455 228.713 394.796 228.713C394.995 228.713 395.165 228.702 395.308 228.679C395.45 228.651 395.575 228.622 395.683 228.594L396.006 229.966C395.859 230.023 395.677 230.074 395.461 230.119C395.245 230.17 394.978 230.196 394.66 230.196C394.103 230.196 393.566 230.074 393.049 229.83C392.538 229.585 392.117 229.222 391.788 228.739C391.458 228.256 391.293 227.656 391.293 226.94V213.773ZM399.051 230V216.909H400.577V230H399.051ZM399.827 214.659C399.514 214.659 399.247 214.554 399.026 214.344C398.804 214.128 398.693 213.869 398.693 213.568C398.693 213.267 398.804 213.011 399.026 212.801C399.247 212.585 399.514 212.477 399.827 212.477C400.139 212.477 400.406 212.585 400.628 212.801C400.849 213.011 400.96 213.267 400.96 213.568C400.96 213.869 400.849 214.128 400.628 214.344C400.406 214.554 400.139 214.659 399.827 214.659ZM409.677 230.273C408.546 230.273 407.546 229.986 406.677 229.412C405.813 228.838 405.137 228.045 404.648 227.034C404.16 226.017 403.915 224.844 403.915 223.514C403.915 222.173 404.16 220.994 404.648 219.977C405.137 218.955 405.813 218.159 406.677 217.591C407.546 217.017 408.546 216.73 409.677 216.73C410.808 216.73 411.805 217.017 412.668 217.591C413.532 218.165 414.208 218.96 414.697 219.977C415.191 220.994 415.438 222.173 415.438 223.514C415.438 224.844 415.194 226.017 414.705 227.034C414.217 228.045 413.538 228.838 412.668 229.412C411.805 229.986 410.808 230.273 409.677 230.273ZM409.677 228.884C410.586 228.884 411.356 228.639 411.987 228.151C412.617 227.662 413.094 227.011 413.418 226.199C413.748 225.386 413.913 224.491 413.913 223.514C413.913 222.537 413.748 221.639 413.418 220.821C413.094 220.003 412.617 219.347 411.987 218.852C411.356 218.358 410.586 218.111 409.677 218.111C408.773 218.111 408.004 218.358 407.367 218.852C406.737 219.347 406.256 220.003 405.927 220.821C405.603 221.639 405.441 222.537 405.441 223.514C405.441 224.491 405.603 225.386 405.927 226.199C406.256 227.011 406.737 227.662 407.367 228.151C407.998 228.639 408.768 228.884 409.677 228.884ZM420.286 221.818V230H418.768V216.909H420.243V218.963H420.379C420.686 218.293 421.163 217.756 421.811 217.352C422.464 216.943 423.271 216.739 424.232 216.739C425.112 216.739 425.885 216.923 426.55 217.293C427.22 217.656 427.74 218.193 428.109 218.903C428.484 219.614 428.672 220.486 428.672 221.52V230H427.155V221.614C427.155 220.54 426.854 219.69 426.251 219.065C425.655 218.44 424.854 218.128 423.848 218.128C423.161 218.128 422.55 218.276 422.016 218.571C421.482 218.866 421.058 219.293 420.746 219.849C420.439 220.401 420.286 221.057 420.286 221.818ZM436.323 230.298C435.533 230.298 434.812 230.145 434.158 229.838C433.505 229.526 432.985 229.077 432.599 228.491C432.212 227.901 432.019 227.185 432.019 226.344C432.019 225.696 432.141 225.151 432.386 224.707C432.63 224.264 432.977 223.901 433.425 223.616C433.874 223.332 434.406 223.108 435.019 222.943C435.633 222.778 436.309 222.651 437.048 222.56C437.781 222.469 438.4 222.389 438.906 222.321C439.417 222.253 439.806 222.145 440.073 221.997C440.34 221.849 440.474 221.611 440.474 221.281V220.974C440.474 220.082 440.207 219.381 439.673 218.869C439.144 218.352 438.383 218.094 437.388 218.094C436.445 218.094 435.675 218.301 435.079 218.716C434.488 219.131 434.073 219.619 433.835 220.182L432.394 219.662C432.69 218.946 433.099 218.375 433.621 217.949C434.144 217.517 434.729 217.207 435.377 217.02C436.025 216.827 436.681 216.73 437.346 216.73C437.846 216.73 438.366 216.795 438.906 216.926C439.451 217.057 439.957 217.284 440.423 217.608C440.888 217.926 441.266 218.372 441.556 218.946C441.846 219.514 441.991 220.236 441.991 221.111V230H440.474V227.929H440.38C440.198 228.315 439.928 228.69 439.57 229.054C439.212 229.418 438.763 229.716 438.224 229.949C437.684 230.182 437.05 230.298 436.323 230.298ZM436.528 228.909C437.335 228.909 438.033 228.73 438.624 228.372C439.215 228.014 439.67 227.54 439.988 226.949C440.312 226.352 440.474 225.696 440.474 224.98V223.088C440.36 223.196 440.17 223.293 439.903 223.378C439.641 223.463 439.337 223.54 438.991 223.608C438.65 223.67 438.309 223.724 437.968 223.77C437.627 223.815 437.32 223.855 437.048 223.889C436.309 223.98 435.678 224.122 435.156 224.315C434.633 224.509 434.232 224.776 433.954 225.116C433.675 225.452 433.536 225.884 433.536 226.412C433.536 227.207 433.82 227.824 434.388 228.261C434.957 228.693 435.67 228.909 436.528 228.909ZM447.543 212.545V230H446.026V212.545H447.543ZM458.308 230V216.909H459.782V218.92H459.918C460.18 218.244 460.614 217.713 461.222 217.327C461.836 216.935 462.572 216.739 463.43 216.739C464.333 216.739 465.075 216.952 465.654 217.378C466.239 217.798 466.677 218.378 466.967 219.116H467.077C467.373 218.389 467.853 217.812 468.518 217.386C469.188 216.955 470.001 216.739 470.955 216.739C472.171 216.739 473.131 217.122 473.836 217.889C474.54 218.651 474.893 219.764 474.893 221.23V230H473.376V221.23C473.376 220.196 473.112 219.42 472.583 218.903C472.055 218.386 471.359 218.128 470.495 218.128C469.495 218.128 468.725 218.435 468.185 219.048C467.646 219.662 467.376 220.44 467.376 221.384V230H465.825V221.094C465.825 220.207 465.577 219.491 465.083 218.946C464.589 218.401 463.893 218.128 462.995 218.128C462.393 218.128 461.85 218.276 461.367 218.571C460.89 218.866 460.512 219.278 460.234 219.807C459.961 220.33 459.825 220.932 459.825 221.614V230H458.308ZM482.565 230.298C481.776 230.298 481.054 230.145 480.401 229.838C479.747 229.526 479.227 229.077 478.841 228.491C478.455 227.901 478.261 227.185 478.261 226.344C478.261 225.696 478.384 225.151 478.628 224.707C478.872 224.264 479.219 223.901 479.668 223.616C480.116 223.332 480.648 223.108 481.261 222.943C481.875 222.778 482.551 222.651 483.29 222.56C484.023 222.469 484.642 222.389 485.148 222.321C485.659 222.253 486.048 222.145 486.315 221.997C486.582 221.849 486.716 221.611 486.716 221.281V220.974C486.716 220.082 486.449 219.381 485.915 218.869C485.386 218.352 484.625 218.094 483.631 218.094C482.688 218.094 481.918 218.301 481.321 218.716C480.73 219.131 480.315 219.619 480.077 220.182L478.636 219.662C478.932 218.946 479.341 218.375 479.864 217.949C480.386 217.517 480.972 217.207 481.619 217.02C482.267 216.827 482.923 216.73 483.588 216.73C484.088 216.73 484.608 216.795 485.148 216.926C485.693 217.057 486.199 217.284 486.665 217.608C487.131 217.926 487.509 218.372 487.798 218.946C488.088 219.514 488.233 220.236 488.233 221.111V230H486.716V227.929H486.622C486.44 228.315 486.17 228.69 485.812 229.054C485.455 229.418 485.006 229.716 484.466 229.949C483.926 230.182 483.293 230.298 482.565 230.298ZM482.77 228.909C483.577 228.909 484.276 228.73 484.866 228.372C485.457 228.014 485.912 227.54 486.23 226.949C486.554 226.352 486.716 225.696 486.716 224.98V223.088C486.602 223.196 486.412 223.293 486.145 223.378C485.884 223.463 485.58 223.54 485.233 223.608C484.892 223.67 484.551 223.724 484.21 223.77C483.869 223.815 483.562 223.855 483.29 223.889C482.551 223.98 481.92 224.122 481.398 224.315C480.875 224.509 480.474 224.776 480.196 225.116C479.918 225.452 479.778 225.884 479.778 226.412C479.778 227.207 480.062 227.824 480.631 228.261C481.199 228.693 481.912 228.909 482.77 228.909ZM493.786 221.818V230H492.268V216.909H493.743V218.963H493.879C494.186 218.293 494.663 217.756 495.311 217.352C495.964 216.943 496.771 216.739 497.732 216.739C498.612 216.739 499.385 216.923 500.05 217.293C500.72 217.656 501.24 218.193 501.609 218.903C501.984 219.614 502.172 220.486 502.172 221.52V230H500.655V221.614C500.655 220.54 500.354 219.69 499.751 219.065C499.155 218.44 498.354 218.128 497.348 218.128C496.661 218.128 496.05 218.276 495.516 218.571C494.982 218.866 494.558 219.293 494.246 219.849C493.939 220.401 493.786 221.057 493.786 221.818ZM509.823 230.298C509.033 230.298 508.312 230.145 507.658 229.838C507.005 229.526 506.485 229.077 506.099 228.491C505.712 227.901 505.519 227.185 505.519 226.344C505.519 225.696 505.641 225.151 505.886 224.707C506.13 224.264 506.477 223.901 506.925 223.616C507.374 223.332 507.906 223.108 508.519 222.943C509.133 222.778 509.809 222.651 510.548 222.56C511.281 222.469 511.9 222.389 512.406 222.321C512.917 222.253 513.306 222.145 513.573 221.997C513.84 221.849 513.974 221.611 513.974 221.281V220.974C513.974 220.082 513.707 219.381 513.173 218.869C512.644 218.352 511.883 218.094 510.888 218.094C509.945 218.094 509.175 218.301 508.579 218.716C507.988 219.131 507.573 219.619 507.335 220.182L505.894 219.662C506.19 218.946 506.599 218.375 507.121 217.949C507.644 217.517 508.229 217.207 508.877 217.02C509.525 216.827 510.181 216.73 510.846 216.73C511.346 216.73 511.866 216.795 512.406 216.926C512.951 217.057 513.457 217.284 513.923 217.608C514.388 217.926 514.766 218.372 515.056 218.946C515.346 219.514 515.491 220.236 515.491 221.111V230H513.974V227.929H513.88C513.698 228.315 513.428 228.69 513.07 229.054C512.712 229.418 512.263 229.716 511.724 229.949C511.184 230.182 510.55 230.298 509.823 230.298ZM510.028 228.909C510.835 228.909 511.533 228.73 512.124 228.372C512.715 228.014 513.17 227.54 513.488 226.949C513.812 226.352 513.974 225.696 513.974 224.98V223.088C513.86 223.196 513.67 223.293 513.403 223.378C513.141 223.463 512.837 223.54 512.491 223.608C512.15 223.67 511.809 223.724 511.468 223.77C511.127 223.815 510.82 223.855 510.548 223.889C509.809 223.98 509.178 224.122 508.656 224.315C508.133 224.509 507.732 224.776 507.454 225.116C507.175 225.452 507.036 225.884 507.036 226.412C507.036 227.207 507.32 227.824 507.888 228.261C508.457 228.693 509.17 228.909 510.028 228.909ZM524.521 235.182C523.629 235.182 522.847 235.065 522.177 234.832C521.506 234.605 520.941 234.293 520.481 233.895C520.021 233.497 519.663 233.051 519.407 232.557L520.651 231.739C520.839 232.068 521.089 232.392 521.401 232.71C521.719 233.028 522.131 233.293 522.637 233.503C523.148 233.713 523.776 233.818 524.521 233.818C525.68 233.818 526.614 233.528 527.325 232.949C528.04 232.369 528.398 231.469 528.398 230.247V227.298H528.262C528.086 227.696 527.833 228.094 527.504 228.491C527.174 228.884 526.742 229.21 526.208 229.472C525.68 229.733 525.023 229.864 524.239 229.864C523.194 229.864 522.265 229.605 521.452 229.088C520.646 228.571 520.009 227.832 519.543 226.872C519.083 225.906 518.853 224.756 518.853 223.42C518.853 222.097 519.077 220.932 519.526 219.926C519.981 218.92 520.614 218.136 521.427 217.574C522.239 217.011 523.185 216.73 524.265 216.73C525.066 216.73 525.731 216.872 526.259 217.156C526.788 217.435 527.211 217.781 527.529 218.196C527.853 218.611 528.106 219.014 528.288 219.406H528.441V216.909H529.924V230.341C529.924 231.449 529.688 232.361 529.217 233.077C528.745 233.793 528.103 234.321 527.29 234.662C526.478 235.009 525.555 235.182 524.521 235.182ZM524.418 228.474C525.259 228.474 525.978 228.273 526.575 227.869C527.171 227.46 527.629 226.875 527.947 226.114C528.265 225.352 528.424 224.446 528.424 223.395C528.424 222.372 528.268 221.466 527.955 220.676C527.643 219.881 527.188 219.256 526.592 218.801C526.001 218.341 525.276 218.111 524.418 218.111C523.543 218.111 522.805 218.347 522.202 218.818C521.6 219.29 521.146 219.926 520.839 220.727C520.532 221.523 520.379 222.412 520.379 223.395C520.379 224.395 520.535 225.278 520.847 226.045C521.16 226.807 521.617 227.403 522.219 227.835C522.822 228.261 523.555 228.474 524.418 228.474ZM539.233 230.273C538.011 230.273 536.955 229.989 536.062 229.42C535.17 228.847 534.48 228.054 533.991 227.043C533.509 226.026 533.267 224.855 533.267 223.531C533.267 222.213 533.509 221.043 533.991 220.02C534.48 218.991 535.153 218.187 536.011 217.608C536.875 217.023 537.872 216.73 539.003 216.73C539.713 216.73 540.398 216.861 541.057 217.122C541.716 217.378 542.307 217.773 542.83 218.307C543.358 218.835 543.776 219.503 544.082 220.31C544.389 221.111 544.543 222.06 544.543 223.156V223.906H534.315V222.568H542.991C542.991 221.727 542.821 220.972 542.48 220.301C542.145 219.625 541.676 219.091 541.074 218.699C540.477 218.307 539.787 218.111 539.003 218.111C538.173 218.111 537.443 218.332 536.812 218.776C536.182 219.219 535.688 219.804 535.33 220.531C534.977 221.259 534.798 222.054 534.793 222.918V223.719C534.793 224.759 534.972 225.668 535.33 226.446C535.693 227.219 536.207 227.818 536.872 228.244C537.537 228.67 538.324 228.884 539.233 228.884C539.852 228.884 540.395 228.787 540.861 228.594C541.332 228.401 541.727 228.142 542.045 227.818C542.369 227.489 542.614 227.128 542.778 226.736L544.219 227.205C544.02 227.756 543.693 228.264 543.239 228.73C542.79 229.196 542.227 229.571 541.551 229.855C540.881 230.134 540.108 230.273 539.233 230.273ZM547.886 230V216.909H549.36V218.92H549.471C549.732 218.261 550.187 217.73 550.835 217.327C551.488 216.918 552.227 216.713 553.05 216.713C553.175 216.713 553.315 216.716 553.468 216.722C553.621 216.727 553.749 216.733 553.852 216.739V218.281C553.783 218.27 553.664 218.253 553.494 218.23C553.323 218.207 553.138 218.196 552.94 218.196C552.258 218.196 551.65 218.341 551.116 218.631C550.587 218.915 550.17 219.31 549.863 219.815C549.556 220.321 549.403 220.898 549.403 221.545V230H547.886ZM568.577 216.909V218.23H562.142V216.909H568.577ZM564.153 230V214.991C564.153 214.287 564.315 213.693 564.639 213.21C564.969 212.727 565.398 212.361 565.926 212.111C566.455 211.861 567.014 211.736 567.605 211.736C568.003 211.736 568.332 211.77 568.594 211.838C568.861 211.901 569.071 211.963 569.224 212.026L568.781 213.355C568.668 213.321 568.528 213.281 568.364 213.236C568.199 213.19 567.991 213.168 567.741 213.168C567.082 213.168 566.574 213.352 566.216 213.722C565.858 214.091 565.679 214.619 565.679 215.307L565.67 230H564.153ZM576.153 230.273C575.023 230.273 574.023 229.986 573.153 229.412C572.29 228.838 571.614 228.045 571.125 227.034C570.636 226.017 570.392 224.844 570.392 223.514C570.392 222.173 570.636 220.994 571.125 219.977C571.614 218.955 572.29 218.159 573.153 217.591C574.023 217.017 575.023 216.73 576.153 216.73C577.284 216.73 578.281 217.017 579.145 217.591C580.009 218.165 580.685 218.96 581.173 219.977C581.668 220.994 581.915 222.173 581.915 223.514C581.915 224.844 581.67 226.017 581.182 227.034C580.693 228.045 580.014 228.838 579.145 229.412C578.281 229.986 577.284 230.273 576.153 230.273ZM576.153 228.884C577.063 228.884 577.832 228.639 578.463 228.151C579.094 227.662 579.571 227.011 579.895 226.199C580.224 225.386 580.389 224.491 580.389 223.514C580.389 222.537 580.224 221.639 579.895 220.821C579.571 220.003 579.094 219.347 578.463 218.852C577.832 218.358 577.063 218.111 576.153 218.111C575.25 218.111 574.48 218.358 573.844 218.852C573.213 219.347 572.733 220.003 572.403 220.821C572.08 221.639 571.918 222.537 571.918 223.514C571.918 224.491 572.08 225.386 572.403 226.199C572.733 227.011 573.213 227.662 573.844 228.151C574.474 228.639 575.244 228.884 576.153 228.884ZM585.245 230V216.909H586.719V218.92H586.83C587.092 218.261 587.546 217.73 588.194 217.327C588.847 216.918 589.586 216.713 590.41 216.713C590.535 216.713 590.674 216.716 590.827 216.722C590.981 216.727 591.109 216.733 591.211 216.739V218.281C591.143 218.27 591.023 218.253 590.853 218.23C590.683 218.207 590.498 218.196 590.299 218.196C589.617 218.196 589.009 218.341 588.475 218.631C587.947 218.915 587.529 219.31 587.222 219.815C586.915 220.321 586.762 220.898 586.762 221.545V230H585.245ZM600.865 230V212.545H602.391V219.406H602.527C602.697 219.014 602.942 218.611 603.26 218.196C603.584 217.781 604.007 217.435 604.53 217.156C605.058 216.872 605.723 216.73 606.524 216.73C607.598 216.73 608.541 217.014 609.354 217.582C610.166 218.145 610.8 218.935 611.254 219.952C611.709 220.963 611.936 222.142 611.936 223.489C611.936 224.841 611.709 226.026 611.254 227.043C610.805 228.06 610.175 228.852 609.362 229.42C608.555 229.989 607.618 230.273 606.55 230.273C605.754 230.273 605.089 230.131 604.555 229.847C604.027 229.562 603.601 229.213 603.277 228.798C602.953 228.378 602.703 227.969 602.527 227.571H602.339V230H600.865ZM602.365 223.463C602.365 224.52 602.521 225.457 602.834 226.276C603.152 227.088 603.607 227.727 604.197 228.193C604.794 228.653 605.516 228.884 606.362 228.884C607.232 228.884 607.967 228.645 608.57 228.168C609.172 227.685 609.629 227.034 609.942 226.216C610.254 225.398 610.411 224.48 610.411 223.463C610.411 222.457 610.254 221.551 609.942 220.744C609.635 219.937 609.18 219.298 608.578 218.827C607.976 218.349 607.237 218.111 606.362 218.111C605.51 218.111 604.786 218.341 604.189 218.801C603.598 219.256 603.146 219.886 602.834 220.693C602.521 221.494 602.365 222.418 602.365 223.463ZM623.587 224.997V216.909H625.104V230H623.587V227.827H623.467C623.161 228.497 622.675 229.057 622.01 229.506C621.345 229.949 620.533 230.17 619.572 230.17C618.737 230.17 617.996 229.989 617.348 229.625C616.7 229.256 616.192 228.716 615.822 228.006C615.453 227.295 615.268 226.423 615.268 225.389V216.909H616.786V225.295C616.786 226.318 617.087 227.142 617.689 227.767C618.291 228.386 619.064 228.696 620.007 228.696C620.598 228.696 621.166 228.554 621.712 228.27C622.257 227.986 622.706 227.571 623.058 227.026C623.411 226.474 623.587 225.798 623.587 224.997ZM630.637 221.818V230H629.12V216.909H630.594V218.963H630.731C631.038 218.293 631.515 217.756 632.163 217.352C632.816 216.943 633.623 216.739 634.583 216.739C635.464 216.739 636.237 216.923 636.901 217.293C637.572 217.656 638.092 218.193 638.461 218.903C638.836 219.614 639.023 220.486 639.023 221.52V230H637.506V221.614C637.506 220.54 637.205 219.69 636.603 219.065C636.006 218.44 635.205 218.128 634.2 218.128C633.512 218.128 632.901 218.276 632.367 218.571C631.833 218.866 631.41 219.293 631.097 219.849C630.79 220.401 630.637 221.057 630.637 221.818ZM646.7 222.636C646.7 224.682 646.442 226.614 645.925 228.432C645.408 230.25 644.666 231.955 643.7 233.545H642.32C642.734 232.875 643.112 232.116 643.453 231.27C643.8 230.423 644.098 229.52 644.348 228.56C644.598 227.599 644.791 226.616 644.928 225.611C645.064 224.605 645.132 223.614 645.132 222.636C645.132 221.324 645.013 220 644.774 218.665C644.536 217.33 644.203 216.062 643.777 214.864C643.357 213.665 642.871 212.619 642.32 211.727H643.7C644.666 213.324 645.408 215.031 645.925 216.849C646.442 218.668 646.7 220.597 646.7 222.636Z" fill="black"/>
    <path d="M772.199 356.188L771.273 356.449C771.182 356.187 771.053 355.951 770.886 355.739C770.72 355.527 770.502 355.358 770.233 355.233C769.968 355.108 769.638 355.045 769.244 355.045C768.653 355.045 768.169 355.186 767.79 355.466C767.411 355.746 767.222 356.108 767.222 356.551C767.222 356.926 767.35 357.231 767.608 357.466C767.869 357.697 768.271 357.881 768.812 358.017L770.131 358.341C770.862 358.519 771.409 358.801 771.773 359.188C772.14 359.574 772.324 360.059 772.324 360.642C772.324 361.134 772.188 361.572 771.915 361.955C771.642 362.337 771.261 362.638 770.773 362.858C770.288 363.074 769.725 363.182 769.085 363.182C768.233 363.182 767.53 362.991 766.977 362.608C766.424 362.222 766.07 361.665 765.915 360.938L766.886 360.699C767.011 361.218 767.256 361.61 767.619 361.875C767.987 362.14 768.47 362.273 769.068 362.273C769.739 362.273 770.275 362.123 770.676 361.824C771.078 361.521 771.278 361.142 771.278 360.688C771.278 360.335 771.161 360.04 770.926 359.801C770.691 359.559 770.335 359.381 769.858 359.267L768.432 358.926C767.674 358.744 767.114 358.456 766.75 358.062C766.386 357.669 766.205 357.18 766.205 356.597C766.205 356.116 766.335 355.693 766.597 355.33C766.858 354.962 767.218 354.674 767.676 354.466C768.134 354.258 768.657 354.153 769.244 354.153C770.044 354.153 770.682 354.335 771.159 354.699C771.64 355.059 771.987 355.555 772.199 356.188ZM774.538 366.273V354.273H775.521V355.938H775.641C775.762 355.676 775.929 355.409 776.141 355.136C776.353 354.86 776.633 354.627 776.982 354.438C777.334 354.248 777.777 354.153 778.311 354.153C779.031 354.153 779.66 354.343 780.197 354.722C780.739 355.097 781.16 355.623 781.459 356.301C781.762 356.975 781.913 357.761 781.913 358.659C781.913 359.561 781.762 360.35 781.459 361.028C781.16 361.706 780.739 362.235 780.197 362.614C779.66 362.992 779.035 363.182 778.322 363.182C777.796 363.182 777.355 363.087 776.999 362.898C776.646 362.708 776.36 362.475 776.141 362.199C775.925 361.919 775.758 361.646 775.641 361.381H775.55V366.273H774.538ZM775.538 358.642C775.538 359.347 775.643 359.972 775.851 360.517C776.063 361.059 776.366 361.485 776.76 361.795C777.158 362.102 777.639 362.256 778.203 362.256C778.783 362.256 779.271 362.097 779.669 361.778C780.071 361.456 780.375 361.023 780.584 360.477C780.796 359.932 780.902 359.32 780.902 358.642C780.902 357.972 780.798 357.367 780.589 356.83C780.385 356.292 780.082 355.866 779.68 355.551C779.279 355.233 778.786 355.074 778.203 355.074C777.635 355.074 777.152 355.227 776.754 355.534C776.357 355.837 776.054 356.258 775.845 356.795C775.641 357.33 775.538 357.945 775.538 358.642ZM787.524 363.182C786.77 363.182 786.104 362.991 785.524 362.608C784.948 362.225 784.498 361.697 784.172 361.023C783.846 360.345 783.683 359.562 783.683 358.676C783.683 357.782 783.846 356.996 784.172 356.318C784.498 355.636 784.948 355.106 785.524 354.727C786.104 354.345 786.77 354.153 787.524 354.153C788.278 354.153 788.943 354.345 789.518 354.727C790.094 355.11 790.545 355.64 790.871 356.318C791.2 356.996 791.365 357.782 791.365 358.676C791.365 359.562 791.202 360.345 790.876 361.023C790.551 361.697 790.098 362.225 789.518 362.608C788.943 362.991 788.278 363.182 787.524 363.182ZM787.524 362.256C788.13 362.256 788.643 362.093 789.064 361.767C789.484 361.441 789.803 361.008 790.018 360.466C790.238 359.924 790.348 359.328 790.348 358.676C790.348 358.025 790.238 357.426 790.018 356.881C789.803 356.335 789.484 355.898 789.064 355.568C788.643 355.239 788.13 355.074 787.524 355.074C786.922 355.074 786.409 355.239 785.984 355.568C785.564 355.898 785.244 356.335 785.024 356.881C784.808 357.426 784.7 358.025 784.7 358.676C784.7 359.328 784.808 359.924 785.024 360.466C785.244 361.008 785.564 361.441 785.984 361.767C786.405 362.093 786.918 362.256 787.524 362.256ZM794.597 357.545V363H793.585V354.273H794.568V355.642H794.659C794.864 355.195 795.182 354.837 795.614 354.568C796.049 354.295 796.587 354.159 797.227 354.159C797.814 354.159 798.33 354.282 798.773 354.528C799.22 354.771 799.566 355.129 799.812 355.602C800.062 356.076 800.188 356.657 800.188 357.347V363H799.176V357.409C799.176 356.693 798.975 356.127 798.574 355.71C798.176 355.294 797.642 355.085 796.972 355.085C796.513 355.085 796.106 355.184 795.75 355.381C795.394 355.578 795.112 355.862 794.903 356.233C794.699 356.6 794.597 357.038 794.597 357.545ZM808.714 356.188L807.788 356.449C807.697 356.187 807.569 355.951 807.402 355.739C807.235 355.527 807.018 355.358 806.749 355.233C806.483 355.108 806.154 355.045 805.76 355.045C805.169 355.045 804.684 355.186 804.305 355.466C803.927 355.746 803.737 356.108 803.737 356.551C803.737 356.926 803.866 357.231 804.124 357.466C804.385 357.697 804.786 357.881 805.328 358.017L806.646 358.341C807.377 358.519 807.925 358.801 808.288 359.188C808.656 359.574 808.839 360.059 808.839 360.642C808.839 361.134 808.703 361.572 808.43 361.955C808.158 362.337 807.777 362.638 807.288 362.858C806.804 363.074 806.241 363.182 805.601 363.182C804.749 363.182 804.046 362.991 803.493 362.608C802.94 362.222 802.586 361.665 802.43 360.938L803.402 360.699C803.527 361.218 803.771 361.61 804.135 361.875C804.502 362.14 804.985 362.273 805.584 362.273C806.254 362.273 806.79 362.123 807.192 361.824C807.593 361.521 807.794 361.142 807.794 360.688C807.794 360.335 807.677 360.04 807.442 359.801C807.207 359.559 806.851 359.381 806.374 359.267L804.947 358.926C804.19 358.744 803.629 358.456 803.266 358.062C802.902 357.669 802.72 357.18 802.72 356.597C802.72 356.116 802.851 355.693 803.112 355.33C803.374 354.962 803.733 354.674 804.192 354.466C804.65 354.258 805.173 354.153 805.76 354.153C806.559 354.153 807.197 354.335 807.675 354.699C808.156 355.059 808.502 355.555 808.714 356.188ZM814.446 363.182C813.692 363.182 813.026 362.991 812.446 362.608C811.87 362.225 811.42 361.697 811.094 361.023C810.768 360.345 810.605 359.562 810.605 358.676C810.605 357.782 810.768 356.996 811.094 356.318C811.42 355.636 811.87 355.106 812.446 354.727C813.026 354.345 813.692 354.153 814.446 354.153C815.2 354.153 815.865 354.345 816.44 354.727C817.016 355.11 817.467 355.64 817.793 356.318C818.122 356.996 818.287 357.782 818.287 358.676C818.287 359.562 818.124 360.345 817.798 361.023C817.473 361.697 817.02 362.225 816.44 362.608C815.865 362.991 815.2 363.182 814.446 363.182ZM814.446 362.256C815.052 362.256 815.565 362.093 815.986 361.767C816.406 361.441 816.724 361.008 816.94 360.466C817.16 359.924 817.27 359.328 817.27 358.676C817.27 358.025 817.16 357.426 816.94 356.881C816.724 356.335 816.406 355.898 815.986 355.568C815.565 355.239 815.052 355.074 814.446 355.074C813.844 355.074 813.33 355.239 812.906 355.568C812.486 355.898 812.166 356.335 811.946 356.881C811.73 357.426 811.622 358.025 811.622 358.676C811.622 359.328 811.73 359.924 811.946 360.466C812.166 361.008 812.486 361.441 812.906 361.767C813.327 362.093 813.84 362.256 814.446 362.256ZM820.507 363V354.273H821.49V355.614H821.564C821.738 355.174 822.041 354.82 822.473 354.551C822.909 354.278 823.401 354.142 823.95 354.142C824.034 354.142 824.126 354.144 824.229 354.148C824.331 354.152 824.416 354.155 824.484 354.159V355.188C824.439 355.18 824.359 355.169 824.246 355.153C824.132 355.138 824.009 355.131 823.876 355.131C823.422 355.131 823.017 355.227 822.661 355.42C822.308 355.61 822.03 355.873 821.825 356.21C821.621 356.547 821.518 356.932 821.518 357.364V363H820.507ZM829.473 363.182C828.659 363.182 827.954 362.992 827.359 362.614C826.765 362.231 826.304 361.703 825.979 361.028C825.657 360.35 825.496 359.57 825.496 358.688C825.496 357.809 825.657 357.028 825.979 356.347C826.304 355.661 826.753 355.125 827.325 354.739C827.901 354.348 828.566 354.153 829.32 354.153C829.793 354.153 830.25 354.241 830.689 354.415C831.128 354.585 831.522 354.848 831.871 355.205C832.223 355.557 832.501 356.002 832.706 356.54C832.911 357.074 833.013 357.706 833.013 358.438V358.938H826.195V358.045H831.979C831.979 357.485 831.865 356.981 831.638 356.534C831.414 356.083 831.102 355.727 830.7 355.466C830.303 355.205 829.842 355.074 829.32 355.074C828.767 355.074 828.28 355.222 827.859 355.517C827.439 355.812 827.109 356.203 826.871 356.688C826.636 357.172 826.517 357.703 826.513 358.278V358.812C826.513 359.506 826.632 360.112 826.871 360.631C827.113 361.146 827.456 361.545 827.899 361.83C828.342 362.114 828.867 362.256 829.473 362.256C829.886 362.256 830.248 362.191 830.558 362.062C830.873 361.934 831.136 361.761 831.348 361.545C831.564 361.326 831.727 361.085 831.837 360.824L832.797 361.136C832.664 361.504 832.446 361.843 832.143 362.153C831.844 362.464 831.469 362.714 831.018 362.903C830.571 363.089 830.056 363.182 829.473 363.182ZM838.384 363.182C837.668 363.182 837.041 362.992 836.503 362.614C835.965 362.235 835.545 361.706 835.241 361.028C834.942 360.35 834.793 359.561 834.793 358.659C834.793 357.761 834.942 356.975 835.241 356.301C835.545 355.623 835.967 355.097 836.509 354.722C837.05 354.343 837.681 354.153 838.401 354.153C838.931 354.153 839.372 354.248 839.724 354.438C840.077 354.623 840.359 354.854 840.571 355.131C840.783 355.407 840.948 355.676 841.065 355.938H841.156V351.364H842.173V363H841.185V361.381H841.065C840.948 361.646 840.781 361.919 840.565 362.199C840.349 362.475 840.063 362.708 839.707 362.898C839.355 363.087 838.914 363.182 838.384 363.182ZM838.503 362.256C839.067 362.256 839.548 362.102 839.946 361.795C840.344 361.485 840.647 361.059 840.855 360.517C841.067 359.972 841.173 359.347 841.173 358.642C841.173 357.945 841.069 357.33 840.861 356.795C840.652 356.258 840.349 355.837 839.952 355.534C839.554 355.227 839.071 355.074 838.503 355.074C837.92 355.074 837.427 355.233 837.026 355.551C836.628 355.866 836.325 356.292 836.116 356.83C835.912 357.367 835.81 357.972 835.81 358.642C835.81 359.32 835.914 359.932 836.122 360.477C836.33 361.023 836.634 361.456 837.031 361.778C837.433 362.097 837.923 362.256 838.503 362.256ZM849.764 363V351.364H850.781V355.938H850.872C850.986 355.676 851.149 355.407 851.361 355.131C851.577 354.854 851.859 354.623 852.207 354.438C852.56 354.248 853.003 354.153 853.537 354.153C854.253 354.153 854.882 354.343 855.423 354.722C855.965 355.097 856.387 355.623 856.69 356.301C856.993 356.975 857.145 357.761 857.145 358.659C857.145 359.561 856.993 360.35 856.69 361.028C856.391 361.706 855.971 362.235 855.429 362.614C854.891 362.992 854.266 363.182 853.554 363.182C853.024 363.182 852.58 363.087 852.224 362.898C851.872 362.708 851.588 362.475 851.372 362.199C851.156 361.919 850.99 361.646 850.872 361.381H850.747V363H849.764ZM850.764 358.642C850.764 359.347 850.868 359.972 851.077 360.517C851.289 361.059 851.592 361.485 851.986 361.795C852.384 362.102 852.865 362.256 853.429 362.256C854.009 362.256 854.499 362.097 854.901 361.778C855.302 361.456 855.607 361.023 855.815 360.477C856.024 359.932 856.128 359.32 856.128 358.642C856.128 357.972 856.024 357.367 855.815 356.83C855.611 356.292 855.308 355.866 854.906 355.551C854.505 355.233 854.012 355.074 853.429 355.074C852.861 355.074 852.378 355.227 851.98 355.534C851.586 355.837 851.285 356.258 851.077 356.795C850.868 357.33 850.764 357.945 850.764 358.642ZM859.759 366.273C859.558 366.273 859.37 366.254 859.196 366.216C859.022 366.178 858.884 366.136 858.781 366.091L859.054 365.199C859.399 365.305 859.705 365.343 859.974 365.312C860.243 365.286 860.482 365.165 860.69 364.949C860.899 364.737 861.084 364.411 861.247 363.972L861.565 363.085L858.355 354.273H859.452L862.043 361.665H862.122L864.713 354.273H865.81L862.116 364.381C861.961 364.801 861.77 365.152 861.543 365.432C861.315 365.716 861.052 365.926 860.753 366.062C860.457 366.203 860.126 366.273 859.759 366.273Z" fill="black"/>
    <path d="M888.74 352.902H894.692H896.315H902.267V354.512H896.315H894.692H888.74V352.902Z" fill="#0F006C"/>
    <path d="M904.431 351.293H912.007V352.902H904.431V351.293Z" fill="#0F006C"/>
    <path d="M904.431 354.512H910.925V356.122H904.431V354.512Z" fill="#0F006C"/>
    <path d="M903.89 357.732H909.842V359.341H903.89V357.732Z" fill="#0F006C"/>
    <path d="M886.575 351.293H879V352.902H886.575V351.293Z" fill="#0F006C"/>
    <path d="M886.575 354.512H880.082V356.122H886.575V354.512Z" fill="#0F006C"/>
    <path d="M887.116 357.732H881.164V359.341H887.116V357.732Z" fill="#0F006C"/>
    <path d="M927.883 364.995H930.43V366.317H923.049V364.995H925.216V351.112H923.049V349.79H935.93V353.662H934.406V351.632L933.93 351.112H927.883V357.581H932.192L932.549 357.227V356.094H934.073V360.415H932.549V359.281L932.192 358.904H927.883V364.995Z" fill="#0F006C"/>
    <path d="M937.883 351.112V349.79H940.359C941.073 349.79 941.843 349.759 942.669 349.696C943.51 349.633 944.319 349.601 945.097 349.601C945.97 349.601 946.827 349.688 947.668 349.861C948.509 350.018 949.255 350.294 949.906 350.687C950.557 351.081 951.081 351.608 951.478 352.269C951.89 352.915 952.097 353.725 952.097 354.701C952.097 355.63 951.89 356.432 951.478 357.109C951.065 357.77 950.517 358.313 949.835 358.738C949.168 359.163 948.39 359.478 947.502 359.683C946.629 359.887 945.724 359.99 944.787 359.99C944.692 359.99 944.549 359.99 944.359 359.99C944.168 359.99 943.962 359.99 943.74 359.99C943.534 359.974 943.335 359.958 943.145 359.942C942.954 359.927 942.811 359.911 942.716 359.895V364.995H945.097V366.317H937.883V364.995H940.05V351.112H937.883ZM942.716 358.549C942.795 358.581 942.915 358.605 943.073 358.62C943.248 358.62 943.43 358.628 943.621 358.644C943.811 358.66 943.994 358.668 944.168 358.668C944.359 358.668 944.502 358.668 944.597 358.668C945.216 358.668 945.795 358.597 946.335 358.455C946.891 358.298 947.375 358.062 947.787 357.747C948.2 357.432 948.525 357.023 948.763 356.519C949.001 356.015 949.121 355.409 949.121 354.701C949.121 353.41 948.708 352.458 947.883 351.844C947.073 351.23 945.962 350.924 944.549 350.924C944.121 350.924 943.764 350.939 943.478 350.971C943.192 350.986 942.938 351.018 942.716 351.065V358.549Z" fill="#0F006C"/>
    <path d="M956.858 366.317H951.025V364.995H952.882L959.048 349.79H961.572L967.214 364.995H969V366.317H962.191V364.995H964.31L962.762 360.84H956.429L954.81 364.995H956.858V366.317ZM956.977 359.517H962.358L960.405 354.064L959.81 351.561H959.715L959.024 354.111L956.977 359.517Z" fill="#0F006C"/>
    <path d="M896.315 359.341V357.732H894.692V359.341H896.315Z" fill="#0F006C"/>
    <path fill-rule="evenodd" clip-rule="evenodd" d="M895.503 347C894.517 347 892.868 347.364 891.316 347.77C889.93 348.137 888.554 348.536 887.188 348.966C886.794 349.091 886.446 349.32 886.181 349.627C885.917 349.934 885.749 350.307 885.695 350.702C884.842 356.857 886.82 361.42 889.22 364.438C890.237 365.729 891.451 366.866 892.819 367.811C893.292 368.138 893.794 368.425 894.318 368.67C894.72 368.852 895.149 369 895.503 369C895.858 369 896.288 368.852 896.689 368.67C897.213 368.425 897.714 368.138 898.188 367.811C899.556 366.866 900.769 365.729 901.787 364.438C904.187 361.42 906.164 356.857 905.312 350.702C905.258 350.307 905.089 349.934 904.825 349.627C904.561 349.32 904.212 349.091 903.819 348.966C902.878 348.671 901.278 348.183 899.691 347.77C898.139 347.364 896.49 347 895.503 347ZM896.315 357.732V359.341H894.692V357.732H896.315ZM896.315 357.732V354.512H902.267V352.902H896.315V348.677C897.098 348.787 898.076 349.018 899.012 349.267C900.341 349.619 901.682 350.036 902.471 350.288C902.8 350.395 903.092 350.59 903.314 350.852C903.535 351.115 903.676 351.432 903.721 351.77C904.436 357.025 902.778 360.919 900.768 363.496C899.915 364.598 898.899 365.568 897.752 366.375C897.356 366.654 896.936 366.899 896.497 367.109C896.437 367.136 896.376 367.163 896.315 367.188V359.341H901.185V357.732H896.315ZM894.692 359.341V367.188C894.631 367.163 894.57 367.136 894.51 367.109C894.071 366.899 893.651 366.654 893.254 366.375C892.108 365.568 891.091 364.598 890.239 363.496C888.228 360.919 886.571 357.025 887.285 351.77C887.331 351.432 887.472 351.115 887.693 350.852C887.914 350.59 888.207 350.395 888.536 350.288C889.681 349.921 890.834 349.58 891.995 349.267C892.931 349.018 893.909 348.787 894.692 348.677V352.902H888.74V354.512H894.692V357.732H889.822V359.341H894.692Z" fill="#0F006C"/>
</svg>
